<svg width="847" height="843" viewBox="0 0 847 843" fill="none" xmlns="http://www.w3.org/2000/svg">
<path d="M57.8 675C74.2333 675 87.9467 680.723 98.94 692.17C110.047 703.503 115.6 717.613 115.6 734.5C115.6 751.387 110.047 765.553 98.94 777C87.9467 788.333 74.2333 794 57.8 794H8.5V675H57.8ZM57.8 761.02C64.7133 761.02 70.38 758.583 74.8 753.71C79.3333 748.723 81.6 742.32 81.6 734.5C81.6 726.68 79.3333 720.333 74.8 715.46C70.38 710.473 64.7133 707.98 57.8 707.98H44.2V761.02H57.8ZM192.897 794L188.817 778.7H154.477L150.397 794H113.847L151.757 675H191.537L229.447 794H192.897ZM161.787 751.5H181.507L171.647 714.95L161.787 751.5ZM297.643 793.83L278.773 756.43H270.273V793.83H236.273V674.83H283.873C296.907 674.83 307.673 678.683 316.173 686.39C324.673 693.983 328.923 704.07 328.923 716.65C328.923 723.677 327.28 730.023 323.993 735.69C320.82 741.357 316.343 745.947 310.563 749.46L334.023 793.83H297.643ZM270.273 706.11V728.21H283.193C286.82 728.323 289.653 727.417 291.693 725.49C293.847 723.563 294.923 720.843 294.923 717.33C294.923 713.817 293.847 711.097 291.693 709.17C289.653 707.13 286.82 706.11 283.193 706.11H270.273ZM423.333 675V707.98H395.283V794H361.283V707.98H333.233V675H423.333ZM486.324 796.72C468.417 796.72 453.57 790.77 441.784 778.87C429.997 766.97 424.104 752.18 424.104 734.5C424.104 716.82 429.997 702.03 441.784 690.13C453.57 678.23 468.417 672.28 486.324 672.28C497.317 672.28 507.46 674.887 516.754 680.1C526.047 685.313 533.3 692.34 538.514 701.18L508.934 718.18C507.007 714.327 504.004 711.267 499.924 709C495.844 706.733 491.31 705.6 486.324 705.6C477.937 705.6 471.137 708.32 465.924 713.76C460.71 719.2 458.104 726.113 458.104 734.5C458.104 742.887 460.71 749.8 465.924 755.24C471.137 760.68 477.937 763.4 486.324 763.4C491.424 763.4 495.957 762.267 499.924 760C504.004 757.733 507.007 754.617 508.934 750.65L538.514 767.65C533.3 776.603 526.047 783.687 516.754 788.9C507.46 794.113 497.317 796.72 486.324 796.72ZM581.055 761.02H620.155V794H547.055V675H581.055V761.02ZM711.334 784.99C702.381 792.81 690.708 796.72 676.314 796.72C661.921 796.72 650.248 792.81 641.294 784.99C632.341 777.17 627.864 766.913 627.864 754.22V675H661.864V750.48C661.864 759.32 666.681 763.74 676.314 763.74C685.948 763.74 690.764 759.32 690.764 750.48V675H724.764V754.22C724.764 766.913 720.288 777.17 711.334 784.99ZM816.631 732.63C826.831 738.41 831.931 747.193 831.931 758.98C831.931 769.86 828.361 778.417 821.221 784.65C814.194 790.883 803.938 794 790.451 794H740.131V675H787.391C800.764 675 810.964 677.89 817.991 683.67C825.018 689.45 828.531 697.723 828.531 708.49C828.531 718.803 824.564 726.85 816.631 732.63ZM785.351 704.24H774.131V720.22L787.221 720.05C792.094 719.37 794.531 716.763 794.531 712.23C794.531 709.623 793.624 707.64 791.811 706.28C789.998 704.92 787.844 704.24 785.351 704.24ZM788.411 764.76C791.131 764.76 793.398 763.967 795.211 762.38C797.024 760.793 797.931 758.753 797.931 756.26C797.931 751.5 795.381 748.723 790.281 747.93L774.131 747.76V764.76H788.411Z" fill="#0A294F"/>
<path d="M288.167 326C288.167 289.975 302.477 255.425 327.951 229.951C353.425 204.478 387.975 190.167 424 190.167C460.025 190.167 494.575 204.478 520.049 229.951C545.522 255.425 559.833 289.975 559.833 326C559.833 362.025 545.522 396.575 520.049 422.049C494.575 447.522 460.025 461.833 424 461.833C387.975 461.833 353.425 447.522 327.951 422.049C302.477 396.575 288.167 362.025 288.167 326ZM424 271.667C409.59 271.667 395.77 277.391 385.58 287.581C375.391 297.77 369.667 311.59 369.667 326C369.667 340.41 375.391 354.23 385.58 364.419C395.77 374.609 409.59 380.333 424 380.333C438.41 380.333 452.23 374.609 462.419 364.419C472.609 354.23 478.333 340.41 478.333 326C478.333 311.59 472.609 297.77 462.419 287.581C452.23 277.391 438.41 271.667 424 271.667Z" fill="#0A294F"/>
<path d="M423.644 28.0299C588.682 28.0299 722.478 161.826 722.478 326.863C722.478 491.901 588.682 625.697 423.644 625.697C258.607 625.697 124.811 491.901 124.811 326.863C124.811 161.826 258.607 28.0299 423.644 28.0299ZM423.644 136.697C398.671 136.697 373.943 141.615 350.871 151.172C327.799 160.729 306.835 174.736 289.176 192.395C271.518 210.054 257.51 231.018 247.953 254.09C238.396 277.162 233.478 301.89 233.478 326.863C233.478 351.836 238.396 376.565 247.953 399.637C257.51 422.709 271.518 443.673 289.176 461.331C306.835 478.99 327.799 492.998 350.871 502.554C373.943 512.111 398.671 517.03 423.644 517.03C474.08 517.03 522.449 496.995 558.112 461.331C593.776 425.668 613.811 377.299 613.811 326.863C613.811 276.428 593.776 228.058 558.112 192.395C522.449 156.732 474.08 136.697 423.644 136.697Z" fill="#0A294F"/>
</svg>
