<svg width="647" height="445" viewBox="0 0 647 445" fill="none" xmlns="http://www.w3.org/2000/svg">
<g filter="url(#filter0_d_570_616)">
<path d="M206.637 342.285C223.238 370.931 241.142 392.008 260.348 405.518C279.716 419.027 301.689 426.758 326.266 428.711V436.523C303.805 435.71 279.798 431.152 254.244 422.852C228.691 414.714 204.439 403.32 181.49 388.672C158.704 374.186 139.01 358.724 122.408 342.285C98.9707 332.845 80.416 322.835 66.7441 312.256C46.8874 296.468 31.4251 277.1 20.3574 254.15C9.45247 231.038 4 203.776 4 172.363C4 122.884 20.0319 81.7871 52.0957 49.0723C84.1595 16.3574 122.978 0 168.551 0C211.845 0 249.28 16.4388 280.855 49.3164C312.594 82.0312 328.463 123.372 328.463 173.34C328.463 213.867 317.151 249.43 294.527 280.029C272.066 310.628 242.77 331.38 206.637 342.285ZM165.621 18.7988C135.999 18.7988 112.154 29.3783 94.0879 50.5371C71.3014 77.0671 59.9082 117.676 59.9082 172.363C59.9082 225.911 71.4642 267.171 94.5762 296.143C112.48 318.441 136.161 329.59 165.621 329.59C196.22 329.59 220.878 318.441 239.596 296.143C261.568 269.775 272.555 230.876 272.555 179.443C272.555 139.893 266.533 106.608 254.488 79.5898C245.211 58.7565 232.841 43.457 217.379 33.6914C202.079 23.763 184.827 18.7988 165.621 18.7988ZM634.371 247.07L642.428 248.779L614.107 338.623H357.76V329.59H370.211C384.208 329.59 394.218 325.033 400.24 315.918C403.658 310.71 405.367 298.665 405.367 279.785V66.1621C405.367 45.4915 403.089 32.5521 398.531 27.3438C392.184 20.1823 382.743 16.6016 370.211 16.6016H357.76V7.56836H507.662V16.6016C490.084 16.4388 477.714 18.0664 470.553 21.4844C463.554 24.9023 458.753 29.2155 456.148 34.4238C453.544 39.6322 452.242 52.0833 452.242 71.7773V279.785C452.242 293.294 453.544 302.572 456.148 307.617C458.102 311.035 461.113 313.558 465.182 315.186C469.251 316.813 481.946 317.627 503.268 317.627H527.438C552.828 317.627 570.65 315.755 580.904 312.012C591.158 308.268 600.517 301.676 608.98 292.236C617.444 282.633 625.908 267.578 634.371 247.07Z" fill="black"/>
</g>
<defs>
<filter id="filter0_d_570_616" x="0" y="0" width="646.428" height="444.523" filterUnits="userSpaceOnUse" color-interpolation-filters="sRGB">
<feFlood flood-opacity="0" result="BackgroundImageFix"/>
<feColorMatrix in="SourceAlpha" type="matrix" values="0 0 0 0 0 0 0 0 0 0 0 0 0 0 0 0 0 0 127 0" result="hardAlpha"/>
<feOffset dy="4"/>
<feGaussianBlur stdDeviation="2"/>
<feComposite in2="hardAlpha" operator="out"/>
<feColorMatrix type="matrix" values="0 0 0 0 0 0 0 0 0 0 0 0 0 0 0 0 0 0 0.25 0"/>
<feBlend mode="normal" in2="BackgroundImageFix" result="effect1_dropShadow_570_616"/>
<feBlend mode="normal" in="SourceGraphic" in2="effect1_dropShadow_570_616" result="shape"/>
</filter>
</defs>
</svg>
