<svg width="385" height="857" viewBox="0 0 385 857" fill="none" xmlns="http://www.w3.org/2000/svg">
<rect width="385" height="857" fill="#0A294F"/>
<path d="M124.44 46.36V71.192L91.16 82.2L124.44 93.208V118.04L66.84 93.08V71.32L124.44 46.36ZM130.81 127V108.312L159.994 76.696C160.506 76.0987 161.231 75.288 162.17 74.264C163.194 73.24 163.877 72.5147 164.218 72.088C164.645 71.6613 165.157 71.1067 165.754 70.424C166.437 69.656 166.863 69.0587 167.034 68.632C167.29 68.12 167.503 67.608 167.674 67.096C167.93 66.4987 168.058 65.9013 168.058 65.304C168.058 63.8533 167.546 62.6587 166.522 61.72C165.498 60.696 164.005 60.184 162.042 60.184C157.263 60.184 153.722 63.2133 151.418 69.272L128.89 56.984C131.877 49.9013 136.271 44.5253 142.074 40.856C147.962 37.1867 154.49 35.352 161.658 35.352C170.447 35.352 177.957 37.8693 184.186 42.904C190.501 47.8533 193.658 54.7227 193.658 63.512C193.658 68.888 192.463 73.5813 190.074 77.592C187.77 81.6027 184.101 86.424 179.066 92.056L169.978 102.168H195.578V127H130.81ZM236.51 68.76C245.385 68.76 252.723 71.2773 258.526 76.312C264.329 81.2613 267.23 88.4293 267.23 97.816C267.23 107.8 264.073 115.523 257.758 120.984C251.443 126.36 243.507 129.048 233.95 129.048C225.502 129.048 218.249 127.256 212.19 123.672C206.217 120.088 201.95 114.797 199.39 107.8L221.918 94.872C223.71 101.101 227.721 104.216 233.95 104.216C236.254 104.216 238.089 103.661 239.454 102.552C240.905 101.443 241.63 99.8213 241.63 97.688C241.63 93.5067 239.07 91.416 233.95 91.416H204.51L208.222 37.4H262.11V62.232H231.646L231.134 68.76H236.51Z" fill="#EEEEEE"/>
<path d="M127.44 209.36V234.192L94.16 245.2L127.44 256.208V281.04L69.84 256.08V234.32L127.44 209.36ZM179.378 237.008C185.181 238.715 189.789 241.701 193.202 245.968C196.701 250.149 198.45 255.44 198.45 261.84C198.45 271.739 195.293 279.248 188.978 284.368C182.663 289.488 174.727 292.048 165.17 292.048C157.319 292.048 150.45 290.256 144.562 286.672C138.674 283.088 134.45 277.797 131.89 270.8L154.418 257.872C156.21 264.101 159.794 267.216 165.17 267.216C167.474 267.216 169.309 266.619 170.674 265.424C172.125 264.229 172.85 262.608 172.85 260.56C172.85 256.293 170.29 254.16 165.17 254.16H159.666L149.682 239.312L161.714 225.232H134.706V200.4H193.586V220.112L179.378 237.008ZM269.224 279.376C262.653 287.824 253.352 292.048 241.32 292.048C229.288 292.048 219.987 287.824 213.416 279.376C206.845 270.843 203.56 259.451 203.56 245.2C203.56 230.949 206.845 219.6 213.416 211.152C219.987 202.619 229.288 198.352 241.32 198.352C253.352 198.352 262.653 202.619 269.224 211.152C275.795 219.6 279.08 230.949 279.08 245.2C279.08 259.451 275.795 270.843 269.224 279.376ZM229.16 245.2C229.16 259.877 233.213 267.216 241.32 267.216C249.427 267.216 253.48 259.877 253.48 245.2C253.48 230.523 249.427 223.184 241.32 223.184C233.213 223.184 229.16 230.523 229.16 245.2Z" fill="#EEEEEE"/>
<path d="M124.44 372.36V397.192L91.16 408.2L124.44 419.208V444.04L66.84 419.08V397.32L124.44 372.36ZM201.21 416.904V439.944H192.25V453H167.162V439.944H129.53V416.904L154.234 363.4H183.29L158.202 416.904H167.162V404.36H192.25V416.904H201.21ZM271.349 442.376C264.778 450.824 255.477 455.048 243.445 455.048C231.413 455.048 222.112 450.824 215.541 442.376C208.97 433.843 205.685 422.451 205.685 408.2C205.685 393.949 208.97 382.6 215.541 374.152C222.112 365.619 231.413 361.352 243.445 361.352C255.477 361.352 264.778 365.619 271.349 374.152C277.92 382.6 281.205 393.949 281.205 408.2C281.205 422.451 277.92 433.843 271.349 442.376ZM231.285 408.2C231.285 422.877 235.338 430.216 243.445 430.216C251.552 430.216 255.605 422.877 255.605 408.2C255.605 393.523 251.552 386.184 243.445 386.184C235.338 386.184 231.285 393.523 231.285 408.2Z" fill="#EEEEEE"/>
<path d="M119.44 535.36V560.192L86.16 571.2L119.44 582.208V607.04L61.84 582.08V560.32L119.44 535.36ZM161.01 557.76C169.885 557.76 177.223 560.277 183.026 565.312C188.829 570.261 191.73 577.429 191.73 586.816C191.73 596.8 188.573 604.523 182.258 609.984C175.943 615.36 168.007 618.048 158.45 618.048C150.002 618.048 142.749 616.256 136.69 612.672C130.717 609.088 126.45 603.797 123.89 596.8L146.418 583.872C148.21 590.101 152.221 593.216 158.45 593.216C160.754 593.216 162.589 592.661 163.954 591.552C165.405 590.443 166.13 588.821 166.13 586.688C166.13 582.507 163.57 580.416 158.45 580.416H129.01L132.722 526.4H186.61V551.232H156.146L155.634 557.76H161.01ZM261.849 605.376C255.278 613.824 245.977 618.048 233.945 618.048C221.913 618.048 212.612 613.824 206.041 605.376C199.47 596.843 196.185 585.451 196.185 571.2C196.185 556.949 199.47 545.6 206.041 537.152C212.612 528.619 221.913 524.352 233.945 524.352C245.977 524.352 255.278 528.619 261.849 537.152C268.42 545.6 271.705 556.949 271.705 571.2C271.705 585.451 268.42 596.843 261.849 605.376ZM221.785 571.2C221.785 585.877 225.838 593.216 233.945 593.216C242.052 593.216 246.105 585.877 246.105 571.2C246.105 556.523 242.052 549.184 233.945 549.184C225.838 549.184 221.785 556.523 221.785 571.2Z" fill="#EEEEEE"/>
<path d="M291.537 703.156C290.809 703.156 290.179 702.89 289.647 702.358C289.116 701.826 288.85 701.197 288.85 700.469C288.85 699.041 289.116 697.669 289.647 696.354C290.179 695.038 290.963 693.876 291.999 692.868L295.316 689.509C296.38 688.445 296.912 687.171 296.912 685.688C296.912 684.96 297.178 684.33 297.71 683.798C298.242 683.266 298.872 683 299.6 683C300.327 683 300.957 683.266 301.489 683.798C302.021 684.33 302.287 684.96 302.287 685.688C302.287 687.115 302.021 688.487 301.489 689.803C300.957 691.118 300.174 692.28 299.138 693.288L295.82 696.647C294.757 697.711 294.225 698.985 294.225 700.469C294.225 701.197 293.959 701.826 293.427 702.358C292.895 702.89 292.265 703.156 291.537 703.156ZM275.412 703.156C274.684 703.156 274.054 702.89 273.522 702.358C272.991 701.826 272.725 701.197 272.725 700.469C272.725 699.041 272.991 697.669 273.522 696.354C274.054 695.038 274.838 693.876 275.874 692.868L279.191 689.509C280.255 688.445 280.787 687.171 280.787 685.688C280.787 684.96 281.053 684.33 281.585 683.798C282.117 683.266 282.747 683 283.475 683C284.202 683 284.832 683.266 285.364 683.798C285.896 684.33 286.162 684.96 286.162 685.688C286.162 687.115 285.896 688.487 285.364 689.803C284.832 691.118 284.049 692.28 283.013 693.288L279.695 696.647C278.632 697.711 278.1 698.985 278.1 700.469C278.1 701.197 277.834 701.826 277.302 702.358C276.77 702.89 276.14 703.156 275.412 703.156ZM310.35 710.547C311.469 710.547 312.519 710.757 313.499 711.177C314.479 711.597 315.333 712.171 316.061 712.898C316.788 713.626 317.362 714.48 317.782 715.46C318.202 716.44 318.412 717.49 318.412 718.609V734.734C318.412 735.854 318.202 736.904 317.782 737.884C317.362 738.864 316.788 739.717 316.061 740.445C315.333 741.173 314.479 741.747 313.499 742.167C312.519 742.587 311.469 742.797 310.35 742.797H307.956C307.9 742.993 307.858 743.175 307.83 743.343C307.802 743.511 307.746 743.679 307.662 743.847V745.484C307.662 747.332 307.312 749.068 306.612 750.691C305.912 752.315 304.947 753.743 303.715 754.975C302.483 756.206 301.055 757.172 299.432 757.872C297.808 758.572 296.072 758.922 294.225 758.922H278.1C275.916 758.922 273.9 758.432 272.053 757.452C270.205 756.472 268.665 755.171 267.434 753.547H246.438C244.59 753.547 242.854 753.197 241.23 752.497C239.607 751.797 238.179 750.845 236.947 749.642C235.715 748.438 234.75 747.01 234.05 745.358C233.35 743.707 233 741.957 233 740.109V737.422H243.75C243.75 735.21 244.17 733.125 245.01 731.165C245.85 729.205 247.011 727.498 248.495 726.042C249.979 724.586 251.687 723.424 253.618 722.557C255.55 721.689 257.635 721.269 259.875 721.297C260.715 721.297 261.527 721.367 262.311 721.507C263.094 721.647 263.878 721.843 264.662 722.095V705.172H307.662V710.547H310.35ZM259.875 726.672C258.391 726.672 257.006 726.952 255.718 727.512C254.43 728.072 253.282 728.841 252.274 729.821C251.267 730.801 250.497 731.935 249.965 733.223C249.433 734.51 249.153 735.91 249.125 737.422H264.662V727.848C263.934 727.484 263.178 727.204 262.395 727.008C261.611 726.812 260.771 726.7 259.875 726.672ZM246.438 748.172H264.956C264.76 747.36 264.662 746.464 264.662 745.484V742.797H238.837C239.117 743.581 239.509 744.295 240.013 744.938C240.517 745.582 241.09 746.156 241.734 746.66C242.378 747.164 243.106 747.528 243.918 747.752C244.73 747.976 245.57 748.116 246.438 748.172ZM265.88 750.985V751.027L265.922 751.111V751.069L265.88 750.985ZM302.287 745.484V710.547H270.037V745.484C270.037 746.604 270.247 747.654 270.667 748.634C271.087 749.614 271.661 750.467 272.389 751.195C273.117 751.923 273.97 752.497 274.95 752.917C275.93 753.337 276.98 753.547 278.1 753.547H294.225C295.344 753.547 296.394 753.337 297.374 752.917C298.354 752.497 299.208 751.923 299.936 751.195C300.663 750.467 301.237 749.614 301.657 748.634C302.077 747.654 302.287 746.604 302.287 745.484ZM313.037 734.734V718.609C313.037 717.882 312.771 717.252 312.239 716.72C311.707 716.188 311.077 715.922 310.35 715.922H307.662V737.422H310.35C311.077 737.422 311.707 737.156 312.239 736.624C312.771 736.092 313.037 735.462 313.037 734.734Z" fill="#EEEEEE"/>
<path d="M75 755.583V731.333C75 729.515 75.3705 727.864 76.1115 726.382C76.8524 724.9 77.8292 723.587 79.0417 722.442V711.125C79.0417 707.757 80.2205 704.894 82.5781 702.536C84.9358 700.179 87.7986 699 91.1667 699H107.333C108.883 699 110.331 699.287 111.678 699.861C113.025 700.435 114.272 701.226 115.417 702.233C116.562 701.223 117.808 700.432 119.155 699.861C120.502 699.29 121.951 699.003 123.5 699H139.667C143.035 699 145.898 700.179 148.255 702.536C150.613 704.894 151.792 707.757 151.792 711.125V722.442C153.004 723.587 153.981 724.9 154.722 726.382C155.463 727.864 155.833 729.515 155.833 731.333V755.583H147.75V747.5H83.0833V755.583H75ZM119.458 719.208H143.708V711.125C143.708 709.98 143.32 709.021 142.544 708.247C141.768 707.474 140.809 707.086 139.667 707.083H123.5C122.355 707.083 121.396 707.471 120.622 708.247C119.849 709.023 119.461 709.983 119.458 711.125V719.208ZM87.125 719.208H111.375V711.125C111.375 709.98 110.987 709.021 110.211 708.247C109.435 707.474 108.476 707.086 107.333 707.083H91.1667C90.0215 707.083 89.0623 707.471 88.289 708.247C87.5157 709.023 87.1277 709.983 87.125 711.125V719.208Z" fill="#EEEEEE"/>
<path d="M227.608 753.336L213.112 761.688L207.832 755.832C202.52 758.968 196.664 760.536 190.264 760.536C182.712 760.536 176.76 758.552 172.408 754.584C168.056 750.552 165.88 745.56 165.88 739.608C165.88 731.928 169.496 725.88 176.728 721.464C174.424 718.008 173.272 714.328 173.272 710.424C173.272 704.6 175.416 699.8 179.704 696.024C183.992 692.184 189.4 690.264 195.928 690.264C207.384 690.264 215.544 695.448 220.408 705.816L204.376 715.128C202.584 710.456 200.152 708.12 197.08 708.12C194.328 708.12 192.952 709.432 192.952 712.056C192.952 712.312 192.952 712.568 192.952 712.824C193.016 713.08 193.112 713.336 193.24 713.592C193.368 713.848 193.464 714.104 193.528 714.36C193.656 714.552 193.848 714.808 194.104 715.128C194.36 715.448 194.552 715.736 194.68 715.992C194.808 716.184 195.032 716.504 195.352 716.952C195.736 717.336 196.024 717.656 196.216 717.912C196.408 718.104 196.728 718.456 197.176 718.968C197.624 719.48 197.976 719.864 198.232 720.12L208.312 731.544C209.656 728.728 210.616 725.752 211.192 722.616L226.168 731.352C224.696 736.088 222.584 740.472 219.832 744.504L227.608 753.336ZM192.568 744.6C194.04 744.6 195.48 744.344 196.888 743.832L187.48 733.56C185.944 735.032 185.176 736.728 185.176 738.648C185.176 740.312 185.784 741.72 187 742.872C188.28 744.024 190.136 744.6 192.568 744.6Z" fill="#EEEEEE"/>
</svg>
