<svg width="2560" height="1440" viewBox="0 0 2560 1440" fill="none" xmlns="http://www.w3.org/2000/svg">
<rect width="2560" height="1440" fill="black"/>
<g filter="url(#filter0_d_130_20)">
<path d="M962.478 1057.53C1007.66 1135.49 1056.38 1192.85 1108.65 1229.62C1161.36 1266.38 1221.16 1287.42 1288.05 1292.74V1314C1226.92 1311.79 1161.59 1299.38 1092.04 1276.79C1022.5 1254.65 956.496 1223.64 894.04 1183.77C832.028 1144.35 778.431 1102.27 733.248 1057.53C669.463 1031.84 618.967 1004.6 581.758 975.807C527.718 932.84 485.638 880.129 455.517 817.671C425.839 754.771 411 680.578 411 595.087C411 460.43 454.631 348.584 541.893 259.551C629.155 170.517 734.799 126 858.827 126C976.651 126 1078.53 170.738 1164.46 260.215C1250.84 349.248 1294.03 461.758 1294.03 597.746C1294.03 708.04 1263.24 804.825 1201.67 888.101C1140.54 971.376 1060.81 1027.85 962.478 1057.53ZM850.853 177.161C770.236 177.161 705.342 205.953 656.175 263.537C594.161 335.739 563.155 446.256 563.155 595.087C563.155 740.818 594.604 853.108 657.504 931.955C706.229 992.639 770.677 1022.98 850.853 1022.98C934.128 1022.98 1001.23 992.639 1052.18 931.955C1111.97 860.194 1141.87 754.33 1141.87 614.355C1141.87 506.72 1125.49 416.134 1092.7 342.604C1067.46 285.906 1033.79 244.268 991.712 217.691C950.073 190.671 903.122 177.161 850.853 177.161ZM2126.56 798.403L2148.49 803.054L2071.41 1047.56H1373.76V1022.98H1407.65C1445.74 1022.98 1472.98 1010.58 1489.37 985.773C1498.67 971.599 1503.32 938.819 1503.32 887.437V306.061C1503.32 249.805 1497.12 214.591 1484.72 200.416C1467.45 180.926 1441.75 171.181 1407.65 171.181H1373.76V146.597H1781.72V171.181C1733.88 170.738 1700.22 175.168 1680.73 184.47C1661.68 193.772 1648.61 205.51 1641.52 219.685C1634.44 233.859 1630.89 267.745 1630.89 321.342V887.437C1630.89 924.201 1634.44 949.452 1641.52 963.182C1646.84 972.484 1655.04 979.35 1666.11 983.781C1677.18 988.209 1711.73 990.424 1769.76 990.424H1835.54C1904.64 990.424 1953.14 985.329 1981.05 975.143C2008.95 964.953 2034.42 947.013 2057.46 921.322C2080.49 895.187 2103.53 854.215 2126.56 798.403Z" fill="white"/>
</g>
<defs>
<filter id="filter0_d_130_20" x="407" y="126" width="1745.49" height="1196" filterUnits="userSpaceOnUse" color-interpolation-filters="sRGB">
<feFlood flood-opacity="0" result="BackgroundImageFix"/>
<feColorMatrix in="SourceAlpha" type="matrix" values="0 0 0 0 0 0 0 0 0 0 0 0 0 0 0 0 0 0 127 0" result="hardAlpha"/>
<feOffset dy="4"/>
<feGaussianBlur stdDeviation="2"/>
<feComposite in2="hardAlpha" operator="out"/>
<feColorMatrix type="matrix" values="0 0 0 0 0 0 0 0 0 0 0 0 0 0 0 0 0 0 0.25 0"/>
<feBlend mode="normal" in2="BackgroundImageFix" result="effect1_dropShadow_130_20"/>
<feBlend mode="normal" in="SourceGraphic" in2="effect1_dropShadow_130_20" result="shape"/>
</filter>
</defs>
</svg>
